<?xml version="1.0" encoding="UTF-8" standalone="no"?>
<!-- Created with Inkscape (http://www.inkscape.org/) -->

<svg
   version="1.1"
   id="svg1"
   width="4600"
   height="2236"
   viewBox="0 0 4600 2236"
   xmlns="http://www.w3.org/2000/svg"
   xmlns:svg="http://www.w3.org/2000/svg">
  <defs
     id="defs1" />
  <g
     id="g1">
    <path
       style="fill:#000000"
       d="M 0,1416 V 596 h 740 740 v 20 20 h 20 20 v 80 80 H 860 200 v 640 640 h 40 40 v 40 40 h -20 -20 v 40 40 H 120 0 Z m 360,780 v -40 h 20 20 v -120 -120 h 20 20 v -120 -120 h 20 20 v -120 -120 h 20 20 v -120 -120 h 20 20 V 1096 996 h 120 120 v 40 40 h 20 20 v -20 -20 h 20 20 v -20 -20 h 120 120 v 20 20 h 20 20 v 20 20 h 20 20 v 220 220 h -20 -20 v 100 100 h -20 -20 v 40 40 h -20 -20 v 20 20 h -20 -20 v 20 20 h -20 -20 v 20 20 H 880 760 v -20 -20 h -20 -20 v -20 -20 h -40 -40 v 120 120 h -20 -20 v 80 80 H 480 360 Z m 480,-460 v -20 h 40 40 v -40 -40 h 20 20 v -120 -120 h 20 20 v -80 -80 h -20 -20 v -20 -20 h -20 -20 v -20 -20 h -40 -40 v 20 20 h -20 -20 v 20 20 h -20 -20 v 40 40 h -20 -20 v 200 200 h 20 20 v 20 20 h 40 40 z m -120,420 v -80 H 2560 4400 V 1436 796 h -80 -80 v -40 -40 h 20 20 v -60 -60 h 160 160 v 820 820 H 2660 720 Z m 560,-340 v -100 h 100 100 v -20 -20 h 20 20 v -120 -120 h 20 20 v -120 -120 h -80 -80 V 1096 996 h 220 220 v 40 40 h -20 -20 v 120 120 h -20 -20 v 120 120 h -20 -20 v 80 80 h 80 80 v 100 100 h -300 -300 z m 760,20 v -80 h 20 20 v -20 -20 h 20 20 v -40 -40 h 20 20 v -20 -20 h 20 20 v -20 -20 h 20 20 v -20 -20 h 20 20 v -80 -80 h -20 -20 v -40 -40 h -20 -20 v -40 -40 h -20 -20 V 1096 996 h 120 120 v 100 100 h 20 20 v 40 40 h 20 20 v -20 -20 h 20 20 v -40 -40 h 20 20 v -20 -20 h 20 20 v -40 -40 h 20 20 v -20 -20 h 100 100 v 60 60 h -20 -20 v 40 40 h -20 -20 v 20 20 h -20 -20 v 40 40 h -20 -20 v 20 20 h -20 -20 v 20 20 h -20 -20 v 20 20 h -20 -20 v 40 40 h 20 20 v 40 40 h 20 20 v 40 40 h 20 20 v 40 40 h 20 20 v 80 80 h -120 -120 v -80 -80 h -20 -20 v -40 -40 h -40 -40 v 20 20 h -20 -20 v 20 20 h -20 -20 v 40 40 h -20 -20 v 40 40 h -100 -100 z m 960,60 v -20 h -20 -20 v -20 -20 h -20 -20 v -20 -20 h -20 -20 v -60 -60 h -20 -20 v -60 -60 h 20 20 v -120 -120 h 20 20 v -60 -60 h 20 20 v -40 -40 h 20 20 v -20 -20 h 20 20 v -20 -20 h 40 40 v -20 -20 h 160 160 v 20 20 h 40 40 v 20 20 h 20 20 v 40 40 h 20 20 v 160 160 h -20 -20 v 40 40 h -240 -240 v 80 80 h 40 40 v 20 20 h 60 60 v -20 -20 h 20 20 v -20 -20 h 20 20 v -20 -20 h 20 20 v 20 20 h 40 40 v 20 20 h 40 40 v 20 20 h -20 -20 v 20 20 h -20 -20 v 20 20 h -20 -20 v 20 20 h -40 -40 v 20 20 h -180 -180 z m 400,-600 v -60 h -20 -20 v -20 -20 h -20 -20 v -20 -20 h -40 -40 v 20 20 h -40 -40 v 40 40 h -20 -20 v 40 40 h 140 140 z m 320,560 v -60 h 20 20 v -140 -140 h 20 20 v -120 -120 h 20 20 v -120 -120 h 20 20 V 916 796 h -80 -80 V 696 596 h 200 200 v 20 20 h 20 20 v 40 40 h -20 -20 v 120 120 h -20 -20 v 120 120 h -20 -20 v 120 120 h -20 -20 v 120 120 h -20 -20 v 20 20 h 100 100 v 100 100 H 3940 3720 Z M 1680,856 v -20 h -20 -20 v -40 -40 h -20 -20 v -40 -40 h 20 20 v -20 -20 h 20 20 v -20 -20 h 100 100 v 20 20 h 20 20 v 80 80 h -20 -20 v 20 20 h -20 -20 v 20 20 h -80 -80 z M 2040,696 V 596 h 332.6667 332.6666 V 571.33333 546.66667 H 2678.6667 2652 V 519.33333 492 h -27.3333 -27.3334 V 382 272 H 2624.6667 2652 v -27.3435 -27.34351 l 82.3333,0.34351 82.3334,0.3435 v 54.66667 54.66666 l -27,0.36094 -27,0.36094 V 436.02761 544 h 25.9897 25.9898 l 0.3436,-81.66667 0.3435,-81.66666 26.9725,-0.36086 26.9725,-0.36085 0.3608,-26.97248 L 2870,326 l 109,-0.34113 109,-0.34112 v -25.32554 -25.32554 h -55.3333 -55.3334 v -56 -56 H 3004.6667 3032 V 81.333333 0 h 56 56 v 26.666667 26.666666 h 27.3333 27.3334 v 28 27.999997 H 3279.3333 3360 V 54.666667 0 h 55.3333 55.3334 V 137.33333 274.66667 H 3443.3333 3416 V 301.33333 328 h -26.6667 -26.6666 v 27.33333 27.33334 H 3253.3333 3144 V 409.33333 436 h 82 82 v 80 80 h 146 146 V 696 796 H 2820 2040 Z M 3088,518 v -26 h -26.6667 -26.6666 v 26 26 H 3061.3333 3088 Z m -56,-54.66667 v -26 h -53.3333 -53.3334 v 26 26 H 2978.6667 3032 Z M 3141.3333,354 v -26 h -26 -26 v 26 26 h 26 26 z M 3196,272.66667 V 220 h -26 -26 v 52.66667 52.66666 h 26 26 z m 164,0 V 220 h -26 -26 v 52.66667 52.66666 h 26 26 z"
       id="path1" />
  </g>
</svg>
