<?xml version="1.0" encoding="UTF-8" standalone="no"?>
<!-- Created with Inkscape (http://www.inkscape.org/) -->

<svg
   version="1.1"
   id="svg1"
   width="1150.6667"
   height="563.34058"
   viewBox="0 0 1150.6667 563.34057"
   sodipodi:docname="inv.png"
   xmlns:inkscape="http://www.inkscape.org/namespaces/inkscape"
   xmlns:sodipodi="http://sodipodi.sourceforge.net/DTD/sodipodi-0.dtd"
   xmlns="http://www.w3.org/2000/svg"
   xmlns:svg="http://www.w3.org/2000/svg">
  <defs
     id="defs1" />
  <sodipodi:namedview
     id="namedview1"
     pagecolor="#505050"
     bordercolor="#eeeeee"
     borderopacity="1"
     inkscape:showpageshadow="0"
     inkscape:pageopacity="0"
     inkscape:pagecheckerboard="0"
     inkscape:deskcolor="#505050" />
  <g
     inkscape:groupmode="layer"
     inkscape:label="Image"
     id="g1"
     transform="translate(-119,-178.65933)">
    <path
       style="fill:#000000"
       d="m 211.6751,741.41665 c 0.005,-0.32083 11.67598,-70.85833 25.93633,-156.75 l 25.92791,-156.16666 27.73034,-0.0853 c 15.25169,-0.0469 27.73026,0.0281 27.73016,0.16667 -1e-4,0.13855 -1.1251,6.80812 -2.5,14.82125 -1.3749,8.01313 -2.49982,14.73043 -2.49982,14.92733 0,0.1969 1.37832,-1.4843 3.06292,-3.736 4.33259,-5.79106 13.29508,-14.68792 17.98145,-17.84979 6.26718,-4.22841 13.64409,-7.56478 20.78896,-9.40226 7.24293,-1.8627 9.70405,-2.15615 18.16667,-2.16609 7.00349,-0.008 8.1999,0.0729 11.2935,0.76554 24.21416,5.42152 36.51399,22.81374 38.70187,54.72527 0.737,10.74961 0.23125,21.86806 -1.69061,37.16666 -0.79942,6.36365 -10.27088,63.40785 -11.49816,69.25049 -1.28686,6.1263 -4.3156,17.74969 -5.498,21.0997 -4.26118,12.07282 -13.39816,27.0599 -21.58559,35.40611 -5.38373,5.48815 -10.05568,8.86156 -16.48529,11.90332 -6.09301,2.88251 -15.68573,5.67842 -22.36866,6.51961 -4.72152,0.5943 -15.10171,0.2436 -19.24353,-0.65015 -3.63467,-0.78431 -10.1994,-2.97166 -12.75115,-4.24864 -5.57902,-2.79191 -12.09797,-8.55704 -16.15895,-14.29037 -3.71408,-5.24357 -6.87211,-12.61324 -8.47651,-19.78096 l -0.74711,-3.33778 -10.10726,60.56433 c -5.559,33.31039 -10.17977,60.82684 -10.26837,61.14767 -0.15179,0.54957 -1.7611,0.58333 -27.80532,0.58333 -26.1088,0 -27.64373,-0.0324 -27.63578,-0.58333 z M 327.9338,614.96989 c 7.90122,-1.80518 15.66366,-7.58408 20.86828,-15.53578 3.73619,-5.70821 5.36895,-9.79267 7.51488,-18.79897 1.26482,-5.30837 11.15013,-64.7133 11.69861,-70.30182 0.48861,-4.97845 0.20003,-14.30864 -0.55591,-17.97385 -1.28571,-6.23375 -4.5593,-12.63008 -8.02548,-15.68113 -1.72462,-1.51807 -4.40431,-2.89192 -7.93416,-4.06775 -2.08307,-0.6939 -2.92324,-0.7747 -7.83333,-0.75329 -4.85506,0.0212 -5.87226,0.12623 -8.67457,0.89598 -13.31415,3.65722 -22.29945,12.4136 -26.76186,26.08004 -1.92471,5.89455 -2.01753,6.37345 -6.88098,35.5 -4.90479,29.37421 -5.49298,33.63182 -6.00575,43.47299 -0.72672,13.94706 2.17527,24.61609 8.41359,30.93221 4.1549,4.20672 8.6414,6.331 14.54607,6.8873 3.53752,0.33329 6.04976,0.16218 9.63061,-0.65593 z M 119.00001,537.49999 V 333.33333 h 190.66667 c 104.86668,0 190.66668,0.0711 190.66668,0.15799 0,0.0869 -0.44705,1.28336 -0.99344,2.65883 -3.34013,8.40829 -4.90553,20.86361 -4.02387,32.01651 0.35524,4.49373 1.07066,9.68598 1.55009,11.25 0.17013,0.55501 -7.86525,0.58333 -165.51032,0.58333 H 165.66668 v 157.5 157.5 h 12.03613 12.03614 l -0.17458,0.75 c -0.096,0.4125 -1.86186,10.9125 -3.92408,23.33333 l -3.7495,22.58333 H 150.4454 119.00001 Z m 177.90106,203.08333 c 0.11974,-0.59584 1.88629,-11.05834 3.92566,-23.25 l 3.70795,-22.16667 459.2327,-0.0834 459.23272,-0.0835 V 537.49987 379.99999 h -21.1932 -21.1931 l 0.1861,-0.91666 c 0.1943,-0.95733 7.5335,-45.40446 7.5335,-45.62424 0,-0.0692 18.3,-0.12576 40.6667,-0.12576 h 40.6666 V 537.49999 741.66665 H 783.17505 296.68335 Z m 613.59898,-78.45919 c -9.87899,-0.99466 -20.05667,-2.75651 -25.83333,-4.47197 -11.37271,-3.37729 -21.27825,-9.15313 -29.94647,-17.46154 -7.71083,-7.39075 -14.93697,-19.6742 -17.89142,-30.41293 -3.1584,-11.48008 -3.67286,-22.36793 -1.82904,-38.70915 0.61926,-5.48824 8.59272,-56.84615 10.02446,-64.56855 1.06159,-5.72595 3.51693,-15.09305 5.67828,-21.66258 5.29971,-16.10874 14.0066,-28.51547 27.80625,-39.62203 5.59456,-4.50274 10.03521,-7.3058 17.22037,-10.86995 10.0881,-5.00414 17.29192,-7.13982 28.93757,-8.57897 3.80426,-0.47012 7.28183,-0.59653 16.33334,-0.59371 12.47687,0.004 16.23424,0.34633 25.66113,2.33866 16.71808,3.5333 30.69097,12.30188 40.35091,25.32191 5.4467,7.34121 8.5549,13.58565 10.964,22.02677 2.688,9.41833 3.3579,14.45069 3.3559,25.21009 0,13.39745 -0.3318,16.25804 -5.2209,45.34648 l -3.5716,21.24999 h -61.38702 -61.38701 l -0.44671,4.08334 c -0.55888,5.10869 -0.57177,15.22214 -0.0239,18.75 1.59143,10.24764 5.28699,16.78026 12.14271,21.46461 5.3647,3.66558 14.23187,5.71281 22.67828,5.23593 14.83134,-0.83738 24.02799,-5.16456 32.91191,-15.48561 1.83761,-2.13488 4.27062,-5.33988 5.4067,-7.12222 1.13608,-1.78234 2.18499,-3.24484 2.33092,-3.25 0.31472,-0.0111 44.95942,20.30721 45.30642,20.6195 0.3576,0.32182 -4.8871,7.94995 -8.8495,12.87112 -12.87823,15.99431 -24.95941,25.45182 -40.04967,31.35206 -4.67387,1.82747 -8.33014,2.88943 -15.00591,4.35848 -10.04053,2.20948 -12.9307,2.52325 -24.16667,2.62366 -5.59166,0.05 -10.76666,0.0305 -11.5,-0.0434 z M 965.8002,520.08332 c 0.54605,-1.7855 0.94952,-7.8726 0.98869,-14.91666 0.0487,-8.75875 -0.20128,-10.7597 -2.12524,-17.00999 -1.35913,-4.41535 -3.03407,-7.43865 -5.70637,-10.30013 -4.23511,-4.53491 -9.88373,-6.59757 -18.12389,-6.61816 -4.97772,-0.0124 -7.86304,0.44205 -12.5,1.96895 -3.73144,1.22872 -8.86705,3.85447 -11.5,5.87974 -4.29116,3.30077 -9.38576,9.91969 -12.24292,15.90601 -2.03499,4.26373 -4.73336,12.85274 -5.91895,18.84024 -0.58084,2.93334 -1.13579,5.67084 -1.23323,6.08334 l -0.17718,0.75 h 34.18035 c 32.26252,0 34.19035,-0.0327 34.35874,-0.58334 z M 436.88891,658.77776 c -0.12222,-0.12222 -0.22222,-10.62222 -0.22222,-23.33333 v -23.11111 h 28 c 15.4,0 28.0053,-0.1125 28.01177,-0.25 0.006,-0.1375 5.07565,-31 11.26485,-68.58333 l 11.2531,-68.33333 -21.68153,-0.0856 -21.68152,-0.0856 0.0793,-14.58108 c 0.0436,-8.01959 0.17313,-18.51858 0.28778,-23.33108 l 0.20845,-8.75 h 53.29555 c 50.37292,0 53.29555,0.0317 53.29555,0.57871 0,0.31828 -6.825,41.62101 -15.16666,91.78385 -8.34167,50.16283 -15.16667,91.30242 -15.16667,91.4213 0,0.11888 9.75,0.21614 21.66667,0.21614 h 21.66666 v 23.33333 23.33334 h -77.44444 c -42.59445,0 -77.54445,-0.1 -77.66668,-0.22223 z m 187.44446,-0.27136 c 0,-1.03236 2.3424,-15.28183 2.83782,-17.26324 3.01415,-12.055 11.83376,-28.26332 26.70634,-49.07989 6.14648,-8.60299 8.81752,-11.84376 26.73987,-32.44354 8.82712,-10.1458 16.04931,-18.60543 16.04931,-18.79916 0,-0.19374 -4.55091,-8.84262 -10.11312,-19.21975 -15.50692,-28.93041 -20.39165,-39.68817 -24.0053,-52.8675 -3.60616,-13.15197 -3.92757,-21.16405 -1.37731,-34.33333 0.63906,-3.3 1.16203,-6.0375 1.16216,-6.08333 1.3e-4,-0.0458 12.45023,-0.0833 27.6669,-0.0833 25.12556,0 27.66667,0.0489 27.66667,0.53272 0,0.293 -0.54329,3.4055 -1.20731,6.91667 -1.14692,6.06458 -1.19825,6.63408 -1.02605,11.38395 0.13661,3.76842 0.43763,6.22967 1.2221,9.99229 1.30181,6.24399 4.16551,15.01848 6.38043,19.54986 1.70709,3.49245 10.52888,19.88789 10.97801,20.4028 0.1335,0.15306 3.73669,-3.89694 8.00708,-9 4.2704,-5.10306 9.13296,-10.70329 10.80569,-12.44495 7.41047,-7.71585 16.28013,-20.08695 19.68451,-27.45528 1.38232,-2.99185 1.80055,-4.62198 3.3682,-13.12806 l 1.24401,-6.75 h 27.77802 27.77802 l -0.17138,0.75 c -0.15123,0.6618 -0.69638,3.53327 -2.70536,14.25 -1.98493,10.58836 -10.52976,27.93426 -22.98866,46.66667 -6.24701,9.39261 -9.66109,13.56844 -33.59626,41.09231 l -13.26944,15.25899 9.75878,18.57435 c 15.51621,29.53275 16.71256,31.94529 20.28565,40.90768 6.5951,16.5425 8.23307,30.01059 5.61474,46.16667 l -1.10744,6.83333 -27.75001,0.0853 c -15.2625,0.0469 -27.75,0.0198 -27.75,-0.0601 0,-0.08 0.4665,-3.04333 1.03665,-6.58525 1.77727,-11.04072 1.43773,-15.96541 -1.89377,-27.46771 -2.23498,-7.71645 -5.36903,-15.28879 -10.33551,-24.97215 -2.44476,-4.76667 -4.63905,-8.92659 -4.8762,-9.24427 -0.38453,-0.51513 -1.2244,0.34932 -7.7645,7.99175 -4.03333,4.71315 -8.54638,9.84808 -10.029,11.41094 -1.48261,1.56287 -3.87715,4.34158 -5.32119,6.17491 -1.44405,1.83334 -3.884,4.83334 -5.42212,6.66667 -3.86692,4.60911 -6.63705,8.87889 -9.19099,14.16667 -2.58639,5.35493 -3.27488,7.71049 -4.38427,15 -0.46038,3.025 -0.91087,5.8375 -1.00109,6.25 l -0.16404,0.75 h -27.66032 c -24.20492,0 -27.66032,-0.0617 -27.66032,-0.49359 z m 425.00003,-0.0895 c 0,-0.3218 10.2745,-62.83475 22.8323,-138.91765 12.5578,-76.0829 22.8703,-138.63255 22.9167,-138.99922 0.083,-0.66039 -0.1346,-0.66747 -23.1679,-0.75226 l -23.2523,-0.0856 0.086,-23.24773 0.086,-23.24773 54.9167,-0.0843 c 34.9989,-0.0537 54.9166,0.032 54.9166,0.23632 0,0.357 -45.5663,276.64621 -45.8646,278.09799 l -0.1883,0.91667 h 23.362 23.3621 l -0.086,23.25 -0.086,23.25 -54.9166,0.0843 c -52.1747,0.0801 -54.9167,0.0551 -54.9167,-0.50078 z M 554.83337,399.17945 c -8.33945,-1.31738 -15.13811,-4.43545 -20.50492,-9.40417 -7.05093,-6.52791 -10.40548,-16.79775 -9.88917,-30.27529 0.34411,-8.98257 1.61467,-13.18861 6.04161,-20 4.14965,-6.38474 10.99399,-11.2238 18.85248,-13.32898 11.259,-3.01614 20.33605,-2.39963 30.84453,2.09496 6.95301,2.97387 11.72777,7.38843 15.34425,14.18672 3.0936,5.81536 4.29287,11.32735 4.28925,19.71397 -0.004,8.15149 -1.01746,12.88492 -4.06995,19 -4.00319,8.01961 -8.78206,12.4693 -16.88666,15.72347 -3.33993,1.34105 -5.86112,1.98548 -9.51268,2.43151 -3.73691,0.45646 -11.18093,0.3835 -14.50874,-0.14219 z m 72.64328,-20.26279 c 1.1221,-5.3642 1.61991,-10.51423 1.61907,-16.75 -10e-4,-9.02392 -1.20628,-16.80492 -3.79308,-24.49176 -0.71103,-2.11286 -1.29499,-3.95407 -1.29769,-4.09157 -0.003,-0.1375 33.67009,-0.25 74.82842,-0.25 h 74.83334 v -7 -7 h -7 -7 v -7 -7 h -7 -7 v -28.16667 -28.16667 h 7 7 v -7 V 235 h 21.17029 21.17028 l -0.087,14.08333 -0.087,14.08333 -6.91667,0.0901 -6.91666,0.0901 v 27.99324 27.99324 h 6.83084 6.83085 l 0.0858,-21.08334 0.0858,-21.08333 6.91667,-0.0901 6.91666,-0.0901 v -6.99324 -6.99324 h 28.00001 28 v -7 -7 h -14 -14 V 235 221 h 6.99751 6.99752 l 0.0858,-21.08334 0.0858,-21.08333 14.08334,-0.087 14.08333,-0.087 v 6.99685 6.99686 l 6.91667,0.0901 6.91667,0.0901 0.09,7.08583 0.09,7.08584 20.91003,-0.0858 20.91003,-0.0858 0.087,-14.08333 0.087,-14.08334 h 13.99638 13.99639 v 35.16667 35.16666 h -7 -7 v 7.16667 7.16667 h -7 -7 v 7 7 h -28.00001 -28 v 7 7 h 21 21 v 21 21 h 45.66667 45.66669 v 23.33333 23.33333 H 823.29171 627.25004 Z m 244.19007,-66.58333 v -7 h -6.83334 -6.83333 v 7 7 h 6.83333 6.83334 z m -14,-14 v -7 h -13.83334 -13.83333 v 7 7 h 13.83333 13.83334 z m 28,-28.16667 v -6.83333 h -6.83334 -6.83333 v 6.83333 6.83333 h 6.83333 6.83334 z m 14,-21.16667 V 235 h -6.83333 -6.83334 v 13.99999 14 h 6.83334 6.83333 z m 42.25366,0.0833 -0.087,-13.91667 -6.91667,-0.0901 -6.91667,-0.0901 v 14.00676 14.00676 h 7.00366 7.00366 z"
       id="path1"
       inkscape:label="logo-onafgerond"
       inkscape:export-filename="../pixel/img/logo/logo-onafgerond.svg"
       inkscape:export-xdpi="96"
       inkscape:export-ydpi="96" />
  </g>
</svg>
